<svg width="100%" height="100%" viewBox="0 0 353 353" fill="none" xmlns="http://www.w3.org/2000/svg">
  <g clip-path="url(#clip0_76_6)">
    <path d="M176.5 352.886C273.946 352.886 352.943 273.89 352.943 176.443C352.943 78.9962 273.946 0 176.5 0C79.0529 0 0.0566406 78.9962 0.0566406 176.443C0.0566406 273.89 79.0529 352.886 176.5 352.886Z" fill="#ACDDDE" />
    <path d="M176.48 353C251.521 353 315.578 306.132 341.088 240.094C295.02 212.319 235.119 199.141 169.624 199.141C109.397 199.141 53.9041 210.297 9.53833 233.683C33.2923 303.082 99.0353 353 176.48 353Z" fill="#70C49D" />
    <path d="M97.3667 158.422C97.3667 115.442 123.305 80.6014 175.185 80.6014C227.064 80.6014 253.006 115.442 253.006 158.422C253.006 201.4 224.903 236.243 175.185 236.243C125.467 236.243 97.3667 201.4 97.3667 158.422Z" fill="#247B59" />
    <path d="M172.485 275.157L175.12 125.794C175.12 122.774 177.569 120.322 180.592 120.322C183.613 120.322 186.064 122.771 186.064 125.794L188.697 275.157C188.697 279.634 172.485 279.634 172.485 275.157Z" fill="#3F301D" />
    <path d="M181.122 217.727C180.155 217.727 179.18 217.501 178.263 217.028C175.21 215.446 174.026 211.695 175.605 208.647L210.952 144.395C212.086 142.213 214.775 141.361 216.951 142.492C219.133 143.626 219.985 146.309 218.851 148.493L186.65 214.367C185.54 216.501 183.368 217.727 181.122 217.727Z" fill="#3F301D" />
    <path d="M178.774 222.544C176.427 222.544 174.127 221.405 172.736 219.302L133.388 155.687C131.928 153.469 132.531 150.482 134.748 149.017C136.957 147.548 139.953 148.156 141.421 150.373L184.795 211.324C186.999 214.653 186.088 219.136 182.756 221.34C181.529 222.16 180.141 222.544 178.774 222.544Z" fill="#3F301D" />
  </g>
  <defs>
    <clipPath id="clip0_76_6">
      <rect width="353" height="353" fill="white" />
    </clipPath>
  </defs>
</svg>